HIERARCHY
ROOT Hip
{
  OFFSET 0.0 0.0 0.0
  CHANNELS 6 Xposition Yposition Zposition Xrotation Yrotation Zrotation
  JOINT LowerSpine
  {
    OFFSET 0.0 0.061367 -0.03653
    CHANNELS 3 Xrotation Yrotation Zrotation
    JOINT MiddleSpine
    {
      OFFSET 0.0 0.056002 0.002633
      CHANNELS 3 Xrotation Yrotation Zrotation
      JOINT Chest
      {
        OFFSET 0.0 0.069296 -0.013882
        CHANNELS 3 Xrotation Yrotation Zrotation
        JOINT Neck
        {
          OFFSET 0.0 0.156156 -0.002923
          CHANNELS 3 Xrotation Yrotation Zrotation
          JOINT Head
          {
            OFFSET 0.0 0.088183 0.023986
            CHANNELS 3 Xrotation Yrotation Zrotation
            End Site
            {
              OFFSET 1e-06 0.123215 0.003678
            }
          }
        }
        JOINT LClavicle
        {
          OFFSET 0.014189 0.150698 0.046467
          CHANNELS 3 Xrotation Yrotation Zrotation
          JOINT LShoulder
          {
            OFFSET 0.082893 0.021616 -0.034976
            CHANNELS 3 Xrotation Yrotation Zrotation
            JOINT LForearm
            {
              OFFSET 0.195645 -0.000695 -0.001695
              CHANNELS 3 Xrotation Yrotation Zrotation
              JOINT LHand
              {
                OFFSET 0.163209 0.000474 -0.000977
                CHANNELS 3 Xrotation Yrotation Zrotation
                End Site
                {
                  OFFSET 0.0 0.006864 0.0
                }
              }
            }
          }
        }
        JOINT RClavicle
        {
          OFFSET -0.014189 0.150698 0.046467
          CHANNELS 3 Xrotation Yrotation Zrotation
          JOINT RShoulder
          {
            OFFSET -0.082908 0.021619 -0.034982
            CHANNELS 3 Xrotation Yrotation Zrotation
            JOINT RForearm
            {
              OFFSET -0.195645 -0.000695 -0.001695
              CHANNELS 3 Xrotation Yrotation Zrotation
              JOINT RHand
              {
                OFFSET -0.163209 0.000474 -0.000977
                CHANNELS 3 Xrotation Yrotation Zrotation
                End Site
                {
                  OFFSET 0.0 0.006864 0.0
                }
              }
            }
          }
        }
      }
    }
  }
  JOINT RThigh
  {
    OFFSET -0.072558 0.02774 -0.005953
    CHANNELS 3 Xrotation Yrotation Zrotation
    JOINT RShin
    {
      OFFSET -0.005253 -0.285537 0.0
      CHANNELS 3 Xrotation Yrotation Zrotation
      JOINT RFoot
      {
        OFFSET 0.0 -0.28038 0.0
        CHANNELS 3 Xrotation Yrotation Zrotation
        JOINT RToe
        {
          OFFSET 0.0 -0.030816 0.064441
          CHANNELS 3 Xrotation Yrotation Zrotation
          End Site
          {
            OFFSET 0.0 0.0 0.043231
          }
        }
      }
    }
  }
  JOINT LThigh
  {
    OFFSET 0.072557 0.027741 -0.005953
    CHANNELS 3 Xrotation Yrotation Zrotation
    JOINT LShin
    {
      OFFSET 0.005253 -0.285539 0.0
      CHANNELS 3 Xrotation Yrotation Zrotation
      JOINT LFoot
      {
        OFFSET 0.0 -0.28038 0.0
        CHANNELS 3 Xrotation Yrotation Zrotation
        JOINT LToe
        {
          OFFSET 0.0 -0.030816 0.064441
          CHANNELS 3 Xrotation Yrotation Zrotation
          End Site
          {
            OFFSET 0.0 0.0 0.043231
          }
        }
      }
    }
  }
}
MOTION
Frames: 18
Frame Time: 0.03333333333333333
0.026696 0.584072 0.02551 1.335517 2.407763 -0.78119 -2.015604 -0.887905 0.111374 -1.090334 0.921847 0.145765 -3.664848 4.554255 1.053794 -2.304509 0.269168 0.14548 -0.026099 0.018943 0.020249 0.684669 0.82166 -16.070219 22.948793 -24.415699 -55.25259 9.549268 -20.677105 -1.226511 -0.015352 -0.011031 0.024371 -0.019314 0.101256 15.927965 14.549551 27.871143 56.877663 7.767922 12.440778 2.326572 0.019092 -0.020299 0.007207 0.052046 0.967174 1.464048 1.92323 0.121751 -0.513517 -2.304238 1.444368 0.632574 0.054018 0.091286 0.027217 6.783017 7.795976 3.131261 0.289476 4.932555 -0.217495 -2.396876 0.110387 0.069751 -0.05366 -0.012301 -0.001283 
0.027712 0.584355 0.025549 1.221367 2.470316 -0.786493 -2.03695 -0.891602 0.121776 -1.05965 0.927106 0.122919 -3.553341 4.589626 0.93102 -2.313128 0.267179 0.150851 -0.026986 0.022747 0.020974 0.6959 0.840434 -16.119526 22.994678 -24.535418 -55.12487 9.654643 -20.556456 -1.254248 -0.018084 -0.014095 0.027631 -0.004221 0.107855 15.920963 14.59851 28.029903 56.853745 7.944307 12.742922 2.323214 0.017229 -0.016933 0.007252 0.138912 1.054857 1.37466 1.934759 0.198 -0.556348 -2.284667 1.435878 0.639564 0.050635 0.084974 0.025636 6.922217 8.000409 3.161827 0.262013 5.091825 -0.244113 -2.41625 0.12282 0.075748 -0.054006 -0.010364 -0.001256 
0.028677 0.5846 0.025497 1.116085 2.517838 -0.78729 -2.054695 -0.894453 0.129457 -1.032321 0.934952 0.102357 -3.4528 4.626456 0.814172 -2.321467 0.266112 0.155854 -0.027794 0.025728 0.02163 0.706997 0.857207 -16.163364 23.041834 -24.637299 -54.99622 9.756216 -20.455599 -1.275029 -0.020437 -0.016826 0.030363 0.008196 0.111544 15.915437 14.640164 28.175428 56.841686 8.091781 13.025389 2.321505 0.015552 -0.014042 0.007347 0.19241 1.127377 1.277334 1.967435 0.256952 -0.589766 -2.261259 1.426734 0.644953 0.04776 0.079648 0.024295 7.045791 8.205958 3.190228 0.237161 5.247571 -0.269269 -2.439922 0.134042 0.081331 -0.054502 -0.008647 -0.00122 
0.029596 0.584815 0.025369 1.029585 2.557764 -0.781917 -2.070296 -0.896251 0.133933 -1.008652 0.942143 0.081653 -3.370278 4.653615 0.705862 -2.330148 0.264555 0.161904 -0.028673 0.029372 0.0223 0.715365 0.873124 -16.198738 23.09045 -24.714741 -54.871284 9.848804 -20.378557 -1.295049 -0.022727 -0.019665 0.032886 0.019582 0.114058 15.917257 14.679842 28.297356 56.845547 8.215246 13.292222 2.324143 0.015369 -0.011811 0.007625 0.201974 1.187187 1.169017 2.020206 0.301796 -0.613063 -2.234524 1.417102 0.65016 0.045487 0.074785 0.023079 7.148031 8.408543 3.210388 0.207593 5.399012 -0.296314 -2.46687 0.144017 0.084367 -0.055493 -0.006611 -0.000907 
0.030544 0.585007 0.025133 0.974257 2.597782 -0.766259 -2.086701 -0.896474 0.136207 -0.992166 0.95029 0.062784 -3.318373 4.665609 0.600738 -2.339446 0.262273 0.169411 -0.029276 0.033358 0.022634 0.721238 0.886353 -16.222666 23.153139 -24.770288 -54.760345 9.948553 -20.343023 -1.308873 -0.024398 -0.022008 0.034607 0.030627 0.119777 15.925915 14.743199 28.367567 56.86478 8.312547 13.560714 2.327161 0.016877 -0.011623 0.007898 0.137765 1.231237 1.043367 2.088412 0.325952 -0.62734 -2.197286 1.4111 0.656666 0.043704 0.0706 0.022303 7.216915 8.59591 3.208718 0.172346 5.541167 -0.32715 -2.49304 0.149742 0.084111 -0.056505 -0.005218 -0.000509 
0.031508 0.585189 0.024861 0.930701 2.624006 -0.751424 -2.100795 -0.895606 0.136099 -0.979298 0.958713 0.046917 -3.282073 4.671396 0.51018 -2.34842 0.259568 0.176909 -0.029826 0.037431 0.022831 0.726141 0.900456 -16.240011 23.215107 -24.809063 -54.661465 10.045956 -20.33614 -1.318837 -0.025762 -0.024113 0.03584 0.040177 0.121809 15.940022 14.813748 28.417566 56.891476 8.385038 13.803617 2.33173 0.01936 -0.012223 0.008224 0.055244 1.257291 0.909146 2.15635 0.332866 -0.629077 -2.158382 1.40548 0.663226 0.042636 0.067241 0.021557 7.265818 8.763088 3.196554 0.145037 5.669258 -0.354382 -2.517687 0.151531 0.081164 -0.057546 -0.003981 1e-06 
0.032478 0.585365 0.024559 0.896973 2.644269 -0.739129 -2.113079 -0.894547 0.134309 -0.969687 0.966701 0.033007 -3.25775 4.67288 0.428958 -2.356335 0.257008 0.184505 -0.030336 0.041285 0.02297 0.730284 0.913964 -16.253319 23.274492 -24.83337 -54.569199 10.138578 -20.346306 -1.324866 -0.02696 -0.026115 0.036807 0.04788 0.12115 15.956938 14.885199 28.443947 56.926228 8.445282 14.032431 2.334654 0.022056 -0.013058 0.008575 -0.042648 1.266716 0.770449 2.226488 0.325361 -0.621884 -2.116259 1.400184 0.669531 0.041985 0.064489 0.020911 7.301039 8.920269 3.177897 0.117822 5.788691 -0.377952 -2.542686 0.151648 0.077427 -0.058653 -0.002886 0.000507 
0.033451 0.585539 0.024246 0.878587 2.656285 -0.729612 -2.124418 -0.89321 0.131347 -0.963398 0.973824 0.020923 -3.245199 4.670365 0.35769 -2.363877 0.254226 0.192039 -0.030785 0.045048 0.023112 0.733296 0.92691 -16.263372 23.331232 -24.844366 -54.486828 10.223664 -20.370703 -1.327951 -0.028019 -0.028054 0.037576 0.053987 0.119779 15.975251 14.954782 28.449312 56.965828 8.489682 14.246155 2.336216 0.024926 -0.014011 0.008936 -0.157466 1.261033 0.63082 2.299041 0.306772 -0.607584 -2.071345 1.395986 0.675961 0.041722 0.062077 0.020299 7.319153 9.067832 3.154754 0.095299 5.899643 -0.398771 -2.568057 0.151274 0.073635 -0.059846 -0.001871 0.001014 
0.034417 0.585712 0.023983 0.907634 2.6509 -0.723753 -2.136667 -0.890846 0.128053 -0.962048 0.977577 0.010123 -3.249659 4.663806 0.302646 -2.374523 0.249429 0.19933 -0.031111 0.049639 0.023513 0.733931 0.93935 -16.270512 23.382362 -24.840654 -54.430534 10.287801 -20.402994 -1.331981 -0.028987 -0.030121 0.038237 0.058591 0.123721 15.992809 15.010796 28.445021 57.001564 8.489491 14.415473 2.338072 0.028471 -0.014747 0.009353 -0.308537 1.242739 0.501844 2.379918 0.286489 -0.588171 -2.025592 1.395249 0.683858 0.042149 0.059526 0.019447 7.295063 9.210757 3.134746 0.09919 6.004462 -0.419852 -2.593972 0.154547 0.071763 -0.061343 -0.000755 0.001573 
0.035399 0.585889 0.023709 0.950432 2.643948 -0.71939 -2.147748 -0.888152 0.123289 -0.964057 0.980072 0.001294 -3.269955 4.651442 0.259784 -2.384692 0.244362 0.206338 -0.031394 0.054347 0.023902 0.733824 0.951767 -16.273088 23.431261 -24.817444 -54.381634 10.345833 -20.457319 -1.333159 -0.029824 -0.032106 0.038704 0.06218 0.12536 16.012213 15.070946 28.416498 57.039219 8.478072 14.570571 2.338999 0.032425 -0.015684 0.00982 -0.473059 1.204404 0.370462 2.459652 0.252121 -0.559515 -1.976596 1.395777 0.692228 0.043121 0.05749 0.018555 7.25514 9.339556 3.104671 0.106213 6.097389 -0.436429 -2.617143 0.155242 0.068512 -0.062977 0.00038 0.002199 
0.03641 0.586076 0.02344 0.998988 2.630249 -0.717733 -2.160978 -0.886034 0.117109 -0.968047 0.981909 -0.006856 -3.301054 4.63403 0.226055 -2.396561 0.238799 0.212732 -0.031704 0.059474 0.024286 0.733574 0.964615 -16.274429 23.484146 -24.78467 -54.333199 10.400838 -20.52512 -1.332222 -0.030654 -0.034139 0.039018 0.06594 0.12447 16.032537 15.145428 28.363697 57.075184 8.468598 14.739323 2.336072 0.037008 -0.017025 0.010313 -0.642017 1.150581 0.2373 2.531776 0.209455 -0.524586 -1.92306 1.399672 0.70239 0.044539 0.055493 0.017529 7.212648 9.450257 3.064131 0.114854 6.179291 -0.45069 -2.638989 0.154493 0.064355 -0.064855 0.001723 0.002982 
0.037445 0.586276 0.023189 1.056764 2.613737 -0.715488 -2.175948 -0.883775 0.109975 -0.97473 0.982942 -0.015067 -3.344078 4.610057 0.201087 -2.40981 0.232526 0.218022 -0.032034 0.064926 0.024657 0.732867 0.978473 -16.275768 23.541206 -24.734241 -54.287125 10.447927 -20.603563 -1.328172 -0.031572 -0.036304 0.039299 0.06986 0.12059 16.055368 15.235647 28.283693 57.106087 8.463371 14.925712 2.33101 0.042131 -0.018839 0.010818 -0.818024 1.083897 0.100686 2.603009 0.158853 -0.484973 -1.862745 1.405264 0.714178 0.046191 0.053332 0.016379 7.164035 9.546859 3.010044 0.123037 6.251924 -0.462154 -2.658109 0.151838 0.059621 -0.06701 0.003432 0.003923 
0.038511 0.586492 0.022955 1.128176 2.603401 -0.714271 -2.190425 -0.880387 0.102184 -0.985146 0.982164 -0.022155 -3.401954 4.575851 0.183511 -2.423199 0.22535 0.221485 -0.032202 0.070249 0.024973 0.731517 0.993116 -16.272573 23.607418 -24.662329 -54.245136 10.493258 -20.701542 -1.320441 -0.032228 -0.038208 0.039368 0.07403 0.117588 16.078533 15.342814 28.18791 57.130581 8.46912 15.126361 2.32653 0.047124 -0.021382 0.011236 -1.002278 1.000444 -0.040589 2.681144 0.095258 -0.442267 -1.792159 1.410954 0.726868 0.047671 0.051698 0.015267 7.096711 9.632556 2.944408 0.13068 6.314776 -0.468992 -2.671997 0.145249 0.054401 -0.068996 0.005024 0.004756 
0.039619 0.586724 0.022705 1.203953 2.580151 -0.71605 -2.204633 -0.876883 0.093723 -0.997672 0.980572 -0.02701 -3.471323 4.535475 0.174003 -2.435906 0.218149 0.224588 -0.032298 0.07541 0.025249 0.729105 1.006666 -16.266651 23.674545 -24.584589 -54.207703 10.535625 -20.811255 -1.310235 -0.032759 -0.039977 0.039297 0.077318 0.114628 16.100491 15.462109 28.072161 57.152241 8.473743 15.332998 2.321158 0.052022 -0.02417 0.011631 -1.189775 0.896041 -0.181642 2.756498 0.017741 -0.393246 -1.71627 1.41925 0.740333 0.049313 0.050157 0.014186 7.025552 9.696284 2.868229 0.137001 6.35945 -0.473256 -2.683656 0.135913 0.04828 -0.070933 0.006605 0.005604 
0.040818 0.586975 0.022418 1.289633 2.535187 -0.724922 -2.219663 -0.873374 0.084704 -1.012492 0.978738 -0.028889 -3.558475 4.485896 0.174352 -2.449413 0.210799 0.22705 -0.032257 0.080452 0.025456 0.725965 1.018633 -16.259323 23.739586 -24.501234 -54.179913 10.570344 -20.927563 -1.297625 -0.033029 -0.041458 0.038922 0.079658 0.10936 16.122171 15.593875 27.925516 57.174053 8.46984 15.546371 2.312191 0.056961 -0.027552 0.012016 -1.384665 0.755827 -0.321225 2.825288 -0.083258 -0.334795 -1.632631 1.431363 0.75467 0.051207 0.04909 0.013215 6.944102 9.723302 2.774527 0.141025 6.375914 -0.474908 -2.692558 0.122366 0.040838 -0.07281 0.008046 0.006518 
0.042192 0.58725 0.022087 1.405016 2.480553 -0.751005 -2.236776 -0.872351 0.072477 -1.032851 0.975087 -0.024352 -3.680616 4.420842 0.190444 -2.465333 0.204128 0.228845 -0.03181 0.08546 0.025429 0.724975 1.028841 -16.246105 23.806326 -24.412836 -54.163532 10.59685 -21.054039 -1.281151 -0.032493 -0.041877 0.037628 0.081781 0.097318 16.143551 15.743194 27.740889 57.212337 8.450109 15.760542 2.291114 0.061713 -0.032371 0.012265 -1.598501 0.552631 -0.464414 2.892379 -0.2342 -0.25681 -1.538039 1.445695 0.767107 0.053061 0.049989 0.012702 6.829779 9.675224 2.648855 0.13805 6.331352 -0.466694 -2.699317 0.100879 0.031843 -0.07415 0.008679 0.007365 
0.043634 0.587545 0.021756 1.528268 2.401971 -0.782997 -2.255328 -0.871474 0.060571 -1.055288 0.971089 -0.017579 -3.815817 4.351365 0.214385 -2.480489 0.198388 0.229458 -0.031286 0.089931 0.025256 0.722549 1.037139 -16.2306 23.885466 -24.334143 -54.145588 10.627277 -21.186647 -1.260745 -0.03175 -0.042055 0.035996 0.083722 0.085177 16.160233 15.914969 27.551094 57.244606 8.445355 15.98513 2.267498 0.065819 -0.036982 0.012375 -1.814017 0.323494 -0.608291 2.963346 -0.400736 -0.17122 -1.435566 1.461944 0.77894 0.05436 0.050422 0.012338 6.716002 9.597153 2.509965 0.126593 6.258522 -0.456045 -2.703545 0.07423 0.020862 -0.075389 0.009521 0.008351 
0.045038 0.587864 0.021349 1.639089 2.313068 -0.805974 -2.271675 -0.868434 0.052786 -1.083088 0.962791 -0.011594 -3.959597 4.271925 0.237758 -2.491076 0.192686 0.226718 -0.030982 0.094001 0.025548 0.71387 1.03983 -16.214212 23.96623 -24.255865 -54.152348 10.669513 -21.31374 -1.236698 -0.031505 -0.042779 0.034926 0.084513 0.082732 16.160994 16.105263 27.358932 57.268314 8.477559 16.194555 2.241826 0.069039 -0.040556 0.012545 -2.036788 0.110901 -0.734671 3.051655 -0.537762 -0.105217 -1.335738 1.48294 0.791213 0.054805 0.048862 0.011938 6.587507 9.536217 2.381781 0.13706 6.214274 -0.456572 -2.694057 0.04809 0.010024 -0.076688 0.011414 0.009815 
